<?xml version="1.0" standalone="no"?>
<!DOCTYPE svg PUBLIC "-//W3C//DTD SVG 20010904//EN"
 "http://www.w3.org/TR/2001/REC-SVG-20010904/DTD/svg10.dtd">
<svg version="1.0" xmlns="http://www.w3.org/2000/svg"
 width="512.000000pt" height="512.000000pt" viewBox="0 0 512.000000 512.000000"
 preserveAspectRatio="xMidYMid meet">

<g transform="translate(0.000000,512.000000) scale(0.100000,-0.100000)"
fill="#000000" stroke="none">
<path d="M1987 4229 c-58 -14 -111 -44 -145 -84 -60 -67 -66 -89 -70 -232 -4
-122 -3 -132 17 -152 31 -31 84 -28 110 5 18 23 21 41 21 129 0 90 3 106 23
136 13 19 38 39 57 46 25 9 179 12 560 12 381 0 535 -3 560 -12 19 -7 44 -27
57 -46 l23 -34 0 -551 c0 -535 -1 -552 -20 -584 -38 -62 -34 -62 -620 -62
-586 0 -582 0 -620 62 -19 31 -20 50 -20 320 0 192 -4 295 -11 312 -24 51
-103 55 -129 6 -8 -14 -10 -119 -8 -338 3 -359 3 -359 88 -436 83 -75 48 -71
700 -71 652 0 617 -4 700 71 23 21 51 56 63 78 22 41 22 47 25 620 3 650 4
637 -68 719 -23 25 -62 54 -92 68 l-53 24 -555 2 c-305 1 -572 -3 -593 -8z"/>
<path d="M2140 3803 c-31 -11 -50 -37 -50 -68 0 -36 195 -614 213 -632 7 -7
27 -15 44 -19 52 -10 71 20 143 223 36 101 67 183 70 183 3 0 34 -83 69 -185
65 -189 86 -225 132 -225 45 0 66 40 168 334 56 159 101 304 101 321 0 59 -74
91 -118 52 -10 -9 -47 -100 -83 -202 -35 -102 -66 -185 -69 -185 -3 0 -34 83
-68 184 -36 103 -72 192 -83 202 -27 24 -78 22 -99 -3 -9 -12 -43 -94 -75
-184 -32 -90 -62 -175 -67 -189 -9 -22 -18 0 -75 165 -35 105 -72 197 -81 206
-20 20 -51 29 -72 22z"/>
<path d="M215 2461 c-54 -14 -112 -50 -149 -93 -67 -78 -67 -79 -64 -714 l3
-569 27 -51 c31 -59 74 -98 138 -128 39 -18 65 -20 192 -21 139 0 149 1 169
22 27 26 29 75 5 102 -15 16 -35 19 -159 23 -119 3 -147 7 -171 23 -56 37 -56
36 -56 627 0 527 1 544 20 576 38 62 34 62 620 62 576 0 575 0 618 -55 22 -28
22 -28 22 -591 l0 -562 -26 -31 c-14 -17 -42 -35 -62 -41 -21 -5 -148 -10
-289 -10 -240 0 -254 -1 -273 -20 -25 -25 -26 -71 -1 -101 l19 -24 279 0 c249
0 283 2 327 19 65 25 124 79 152 141 l24 50 0 580 0 580 -24 50 c-12 28 -43
69 -69 92 -80 73 -77 73 -696 72 -300 -1 -559 -4 -576 -8z"/>
<path d="M1968 2456 c-26 -7 -55 -19 -65 -26 -47 -36 -87 -79 -106 -115 -22
-40 -22 -47 -25 -619 -3 -650 -4 -637 68 -719 23 -25 62 -54 92 -68 l53 -24
575 0 575 0 53 24 c30 14 69 43 92 68 61 69 70 110 70 308 0 166 -1 172 -23
193 -31 29 -72 28 -102 -3 -25 -24 -25 -27 -25 -188 0 -154 -1 -166 -23 -198
-13 -19 -38 -39 -57 -46 -50 -17 -1070 -17 -1120 0 -19 7 -44 27 -57 46 l-23
34 0 551 c0 535 1 552 20 584 38 62 34 62 620 62 578 0 580 0 617 -56 16 -25
19 -58 23 -276 5 -271 6 -272 67 -284 26 -5 37 -1 58 20 l26 26 -3 263 c-3
297 -6 306 -88 381 -82 74 -51 71 -680 73 -434 2 -576 -1 -612 -11z"/>
<path d="M3722 2451 c-66 -23 -126 -79 -158 -146 l-24 -50 0 -580 0 -580 24
-50 c28 -62 87 -116 152 -141 46 -18 84 -19 619 -19 557 0 571 0 615 21 65 30
107 69 138 128 l27 51 3 569 c3 635 3 636 -64 714 -20 24 -59 55 -88 69 -47
25 -62 27 -201 31 -142 4 -151 3 -177 -18 -35 -27 -38 -80 -8 -110 18 -18 33
-20 150 -20 150 0 189 -11 220 -62 19 -32 20 -49 20 -576 0 -591 0 -589 -56
-627 -28 -19 -52 -20 -549 -23 -286 -2 -540 0 -564 3 -32 5 -54 16 -78 40
l-33 33 0 565 c0 564 0 564 22 592 40 51 65 55 342 55 227 0 256 2 275 18 33
26 31 79 -3 109 -27 23 -29 23 -289 23 -228 -1 -269 -3 -315 -19z"/>
<path d="M754 2066 c-18 -8 -37 -28 -46 -47 -43 -93 -248 -648 -248 -672 0
-37 33 -67 72 -67 43 0 63 21 89 96 l23 64 147 0 147 0 27 -70 c28 -74 45 -90
94 -90 30 0 71 38 71 65 0 31 -254 682 -273 701 -29 29 -65 36 -103 20z m79
-346 c19 -52 38 -103 42 -112 7 -16 -1 -18 -83 -18 l-90 0 38 98 c20 53 40
106 44 116 3 10 8 17 10 15 2 -2 19 -47 39 -99z"/>
<path d="M2491 2064 c-127 -34 -198 -141 -170 -256 21 -90 71 -130 234 -189
46 -17 96 -40 110 -51 35 -27 33 -71 -4 -109 -26 -25 -37 -29 -86 -29 -64 0
-104 15 -159 59 -66 53 -136 31 -136 -43 0 -42 55 -96 139 -134 74 -35 191
-42 258 -17 165 63 215 253 100 373 -37 39 -78 62 -157 87 -84 27 -148 62
-155 85 -10 31 19 67 62 79 46 13 115 -1 165 -34 43 -29 74 -31 105 -10 29 20
37 59 18 94 -18 36 -115 86 -194 101 -65 12 -63 12 -130 -6z"/>
<path d="M4104 2066 c-17 -8 -34 -21 -38 -31 -3 -9 -6 -173 -6 -364 l0 -348
24 -22 c23 -22 30 -23 178 -19 148 3 155 4 206 32 66 37 107 82 143 161 96
206 28 478 -141 565 -76 39 -300 55 -366 26z m294 -160 c32 -16 73 -65 86
-101 34 -92 23 -224 -24 -298 -37 -58 -79 -77 -174 -77 l-76 0 0 251 0 252 78
-6 c44 -2 93 -12 110 -21z"/>
</g>
</svg>
